<?xml version="1.0" encoding="UTF-8" standalone="no"?>
<!DOCTYPE svg PUBLIC "-//W3C//DTD SVG 1.1//EN" "http://www.w3.org/Graphics/SVG/1.1/DTD/svg11.dtd">
<svg width="100%" height="100%" viewBox="0 0 1024 1024" version="1.1" xmlns="http://www.w3.org/2000/svg" xmlns:xlink="http://www.w3.org/1999/xlink" xml:space="preserve" xmlns:serif="http://www.serif.com/" style="fill-rule:evenodd;clip-rule:evenodd;stroke-linejoin:round;stroke-miterlimit:2;">
    <g transform="matrix(2.41551,0,0,2.41551,-726.347,-737.728)">
        <path d="M424.272,696.807C365.45,665.343 328.079,617.716 317.932,551.9C306.109,475.218 332.853,412.465 393.511,364.415C419.881,343.526 450.185,330.672 483.505,326.073C541.654,318.048 593.898,332.396 639.328,369.836C669.696,394.863 690.939,426.367 702.24,464.069C717.747,515.807 712.885,565.957 687.225,613.5C660.58,662.866 619.678,695.188 565.829,710.731C517.039,724.814 469.958,719.232 424.272,696.807M630.808,512.755C646.639,512.748 662.47,512.752 678.3,512.728C684.756,512.718 684.729,512.692 683.99,506.479C683.44,501.854 683.293,497.157 682.419,492.597C671.65,436.428 640.7,395.076 590.335,368.307C570.555,357.794 549.352,351.761 526.913,350.198C522.511,349.891 521.071,351.269 521.132,355.715C521.345,371.21 521.202,386.71 521.199,402.208C521.199,404.543 521.208,406.859 520.32,409.097C518.987,412.453 516.389,414.083 512.975,414.118C509.55,414.154 506.964,412.508 505.515,409.23C504.669,407.316 504.729,405.334 504.726,403.341C504.702,388.509 504.693,373.678 504.674,358.846C504.661,349.479 504.639,349.333 495.133,350.459C446.879,356.173 407.778,378.58 377.5,416.218C356.274,442.604 344.771,473.141 341.395,506.812C340.929,511.456 342.347,512.911 347.05,512.827C361.877,512.562 376.711,512.725 391.543,512.724C393.043,512.724 394.545,512.684 396.042,512.752C401.602,513.005 405.33,516.496 405.172,521.259C405.019,525.889 401.475,529.2 396.05,529.239C379.885,529.355 363.72,529.299 347.556,529.318C341.154,529.326 340.727,529.762 341.395,536.182C343.055,552.144 345.99,567.907 352.52,582.601C380.367,645.268 427.566,682.522 496.335,691.002C504.677,692.031 504.701,691.912 504.708,683.308C504.721,667.809 504.649,652.311 504.762,636.813C504.811,629.985 509.517,626.11 515.408,627.935C520.212,629.424 521.253,633.353 521.248,637.846C521.231,654.011 521.399,670.178 521.178,686.339C521.115,690.998 522.88,691.993 527.114,691.557C551.583,689.032 574.845,682.723 596.278,670.314C628.488,651.667 652.982,625.885 668.995,592.169C677.592,574.067 682.271,554.972 684.303,535.087C684.759,530.628 683.983,529.124 679.362,529.18C663.2,529.374 647.033,529.285 630.869,529.235C624.724,529.216 620.913,526.097 620.761,521.208C620.612,516.438 623.736,513.548 630.808,512.755Z" style="fill:rgb(21,118,186);fill-rule:nonzero;"/>
    </g>
    <g transform="matrix(2.41551,0,0,2.41551,-726.347,-737.728)">
        <path d="M544.113,532C541.342,542.534 533.217,547.862 525.482,553.7C495.987,575.962 466.618,598.393 437.175,620.724C435.804,621.764 434.675,623.478 431.809,623.002C434.146,617.733 436.431,612.68 438.636,607.593C453.466,573.39 468.296,539.186 483.068,504.958C484.283,502.143 485.805,499.788 488.277,497.843C521.518,471.7 555.196,446.13 588.963,420.674C590.218,419.728 591.377,418.438 594.029,418.631C577.313,456.595 560.788,494.124 544.113,532M530.447,515.224C526.329,505.564 517.767,500.666 508.763,502.822C498.667,505.238 492.295,515.409 494.737,525.212C497.215,535.164 507.225,541.489 516.766,539.13C527.568,536.461 533.281,526.936 530.447,515.224Z" style="fill:rgb(222,166,47);fill-rule:nonzero;"/>
    </g>
    <g transform="matrix(2.41551,0,0,2.41551,-726.347,-737.728)">
        <path d="M612.038,409.719C616.209,406.666 620.013,407.055 623.013,410.538C626.093,414.113 624.703,417.716 621.772,420.779C618.435,424.264 615.074,427.736 611.552,431.03C607.361,434.949 603.489,435.01 600.163,431.492C597.061,428.212 597.308,424.409 601.095,420.49C604.563,416.901 608.187,413.463 612.038,409.719Z" style="fill:rgb(21,118,186);fill-rule:nonzero;"/>
    </g>
    <g transform="matrix(2.41551,0,0,2.41551,-726.347,-737.728)">
        <path d="M598.721,612.039C603.583,606.838 606.878,606.589 611.623,611.001C615.146,614.276 618.565,617.673 621.874,621.164C625.229,624.704 625.438,628.902 622.662,631.852C619.634,635.071 615.496,635.058 611.658,631.595C607.963,628.262 604.378,624.803 600.835,621.307C598.332,618.837 596.775,616.01 598.721,612.039Z" style="fill:rgb(21,118,186);fill-rule:nonzero;"/>
    </g>
    <g transform="matrix(2.41551,0,0,2.41551,-726.347,-737.728)">
        <path d="M425.013,421.289C428.145,425.951 428.01,429.465 424.748,432.109C421.118,435.052 417.705,434.362 414.573,431.241C410.932,427.612 407.23,424.035 403.734,420.268C400.168,416.426 400.054,412.635 403.109,409.738C406.167,406.838 410.665,407.037 414.216,410.437C417.808,413.878 421.248,417.478 425.013,421.289Z" style="fill:rgb(21,118,186);fill-rule:nonzero;"/>
    </g>
    <g transform="matrix(2.41551,0,0,2.41551,-726.347,-737.728)">
        <path d="M419.561,626.572C417.27,628.769 415.343,630.864 413.131,632.596C409.704,635.278 406.194,634.762 403.276,631.782C400.411,628.855 400.356,625.378 403.103,622.388C407.032,618.112 411.117,613.948 415.434,610.069C418.726,607.11 423.084,607.475 425.631,610.685C428.21,613.934 428.269,617.414 425.374,620.61C423.591,622.578 421.661,624.413 419.561,626.572Z" style="fill:rgb(21,118,186);fill-rule:nonzero;"/>
    </g>
</svg>
