<?xml version="1.0" encoding="UTF-8" standalone="no"?>
<!DOCTYPE svg PUBLIC "-//W3C//DTD SVG 1.1//EN" "http://www.w3.org/Graphics/SVG/1.1/DTD/svg11.dtd">
<svg width="100%" height="100%" viewBox="0 0 1200 828" version="1.1" xmlns="http://www.w3.org/2000/svg" xmlns:xlink="http://www.w3.org/1999/xlink" xml:space="preserve" xmlns:serif="http://www.serif.com/" style="fill-rule:evenodd;clip-rule:evenodd;stroke-linejoin:round;stroke-miterlimit:2;">
    <path d="M962.999,317.759C961.669,329.119 960.29,339.995 959.02,350.885C956.988,368.31 951.313,384.766 945.356,401.089C937.727,421.991 927.449,441.567 914.144,459.469C910.338,464.589 906.33,469.559 902.405,474.61C911.983,484.99 921.728,495.553 931.418,506.054C951.808,494.952 971.14,505.452 982.15,520.313C985.772,525.203 990.268,529.453 994.436,533.928C1004.14,544.344 1013.93,554.68 1023.61,565.12C1039.68,582.458 1055.71,599.829 1071.71,617.231C1082.11,628.536 1092.39,639.942 1102.77,651.262C1114.39,663.932 1126.08,676.532 1137.69,689.208C1147.79,700.228 1157.77,711.352 1167.88,722.355C1175.72,730.885 1181.83,740.222 1180.93,752.394C1180.3,760.833 1177.82,768.895 1171.51,774.89C1158.69,787.072 1145.95,799.399 1132.39,810.729C1125.68,816.341 1117.23,818.108 1107.74,817.37C1094.49,816.34 1086.05,809.137 1078.24,799.827C1074.53,795.398 1070.47,791.252 1066.52,787.026C1056.58,776.382 1046.57,765.792 1036.64,755.132C1023.79,741.334 1010.98,727.503 998.176,713.661C986.392,700.918 974.669,688.119 962.877,675.385C949.726,661.185 936.539,647.018 923.346,632.857C913.756,622.564 904.271,612.166 894.481,602.066C885.068,592.354 877.452,581.837 879.15,567.489C879.822,561.809 882.331,556.366 883.67,550.736C884.165,548.654 884.614,545.589 883.52,544.263C877.647,537.143 871.264,530.446 865.095,523.568C863.344,521.615 861.976,519.213 859.939,517.666C858.871,516.855 856.215,516.741 855.159,517.515C836.765,531.006 816.5,540.845 795.284,548.96C777.853,555.627 759.768,559.887 741.336,561.739C726.191,563.261 710.787,563.56 695.58,562.782C673.56,561.656 651.958,557.281 631.062,550.026C603.142,540.332 577.378,526.684 554.387,507.939C533.05,490.544 514.314,470.758 499.27,447.687C482.05,421.281 470.451,392.544 463.871,361.637C459.118,339.312 458.254,316.799 459.192,294.207C459.629,283.666 462.162,273.218 463.646,262.714C466.028,245.849 471.414,229.875 478.045,214.293C486.172,195.194 496.547,177.421 508.72,160.552C519.056,146.228 531.23,133.697 543.973,121.71C556.363,110.056 570.12,100.062 584.91,91.538C607.481,78.531 631.461,69.118 656.903,63.655C666.774,61.536 676.835,59.938 686.891,59.148C699.106,58.188 711.411,57.948 723.67,58.09C742.229,58.305 760.344,61.844 778.237,66.625C796.723,71.564 814.476,78.574 830.896,88.207C844.761,96.341 857.869,105.871 870.766,115.514C878.663,121.418 885.998,128.26 892.766,135.453C908.045,151.692 921.056,169.616 931.816,189.257C943.236,210.101 951.196,232.158 956.478,255.189C958.696,264.863 959.904,274.815 960.907,284.708C962.005,295.526 962.335,306.421 962.999,317.759M763.189,496.934C783.559,490.298 802.784,481.395 820.372,468.989C835.69,458.184 849.044,445.29 860.538,430.663C872.335,415.65 881.438,398.93 888.488,381.102C896.856,359.941 901.033,337.915 901.833,315.315C902.169,305.826 901.242,296.189 899.86,286.77C898.165,275.221 896.023,263.658 892.959,252.404C885.553,225.192 871.379,201.491 852.834,180.498C838.155,163.881 820.69,150.524 801.12,140.046C784.836,131.328 767.521,125.059 749.496,121.467C736.696,118.915 723.514,117.959 710.45,117.188C703.655,116.787 696.642,117.797 689.909,119.102C675.575,121.882 661.006,124.183 647.173,128.657C624.44,136.01 604.151,148.405 586.363,164.326C568.015,180.75 552.836,199.736 541.416,221.839C529.491,244.918 522.476,269.306 520.247,294.942C519.191,307.08 520.529,319.443 521.022,331.695C521.597,345.975 525.168,359.714 529.678,373.156C535.648,390.946 544.543,407.246 555.092,422.812C565.126,437.617 577.563,450.078 591.118,461.32C605.056,472.879 620.855,481.71 637.54,488.99C659.717,498.667 683.118,502.428 706.946,503.892C725.759,505.048 744.14,501.353 763.189,496.934Z" style="fill:rgb(222,166,47);fill-rule:nonzero;"/>
    <path d="M632.498,38.201C626.826,36.196 621.015,34.584 615.011,32.492C624.439,34.52 634.115,36.873 643.792,39.225L644.045,40.803C642.331,41.193 640.617,41.582 638.652,41.92C636.443,40.62 634.631,38.955 632.498,38.201ZM591.613,562.913C595.399,565.235 599.203,567.528 602.999,569.833C593.115,571.333 583.238,572.888 573.343,574.314C566.524,575.297 559.697,576.663 552.843,576.879C532.746,577.512 512.576,578.759 492.542,577.709C468.174,576.432 443.962,573.092 419.915,568.273C386.444,561.566 353.97,551.74 322.233,539.469C306.368,533.335 290.809,526.263 275.566,518.7C248.27,505.158 221.652,490.248 196.714,472.729C176.462,458.502 157.01,443.116 137.471,427.901C113.718,409.403 92.556,388.022 71.983,366.185C53.401,346.462 36.355,325.328 21.114,301.992C20.969,299.802 20.956,298.357 20.943,296.913C20.943,296.913 20.967,296.984 21.32,296.938C24.39,296.507 25.145,295.004 24.168,292.513C24.168,292.513 24.246,292.27 24.741,292.313C24.798,292.252 24.853,292.191 24.907,292.129C25.287,290.994 26.009,289.929 26.94,288.696C26.724,289.266 26.447,289.884 26.089,290.514C26.495,289.851 26.831,289.183 27.167,288.515C27.167,288.515 27.246,288.271 27.741,288.313C27.797,288.252 27.853,288.191 27.906,288.129C28.287,286.994 29.009,285.929 29.94,284.696C29.724,285.266 29.447,285.884 29.089,286.513C29.495,285.851 29.831,285.183 30.167,284.515C30.167,284.515 30.231,284.284 30.697,284.28C30.74,284.231 30.781,284.182 30.822,284.132C30.921,283.352 31.337,282.596 31.952,281.684C31.889,282.081 31.766,282.525 31.562,282.986C31.811,282.495 31.989,282.004 32.168,281.514C32.168,281.514 32.246,281.27 32.741,281.313C32.797,281.252 32.853,281.191 32.907,281.129C33.287,279.994 34.009,278.929 34.94,277.696C34.724,278.266 34.447,278.884 34.089,279.514C34.495,278.851 34.831,278.183 35.167,277.515C35.167,277.515 35.246,277.271 35.741,277.313C35.797,277.252 35.853,277.191 35.907,277.129C36.287,275.994 37.009,274.929 37.94,273.696C37.724,274.266 37.447,274.884 37.089,275.513C37.495,274.851 37.831,274.183 38.167,273.515C38.167,273.515 38.246,273.271 38.733,273.315C38.795,273.251 38.856,273.187 38.916,273.123C39.51,271.754 40.442,270.461 41.647,269.042C41.3,269.804 40.86,270.61 40.312,271.419C40.914,270.586 41.427,269.746 41.94,268.906C41.94,268.906 41.974,268.974 42.317,268.934C43.754,267.231 44.847,265.569 45.94,263.906C45.94,263.906 45.974,263.974 46.317,263.934C47.754,262.231 48.847,260.569 49.94,258.906C49.94,258.906 49.974,258.974 50.318,258.934C51.761,257.224 52.859,255.555 53.958,253.886C54.426,253.313 54.894,252.74 56.003,252.035C56.161,251.872 56.313,251.71 56.461,251.549C57.231,250.105 58.316,248.63 59.656,247.031C59.251,247.801 58.769,248.608 58.201,249.437C58.842,248.575 59.4,247.73 59.958,246.886C61.076,245.661 62.195,244.437 63.978,243.058C64.146,242.885 64.308,242.713 64.464,242.542C65.234,241.1 66.318,239.627 67.656,238.031C67.254,238.796 66.776,239.597 66.213,240.42C66.85,239.562 67.404,238.724 67.958,237.886C69.076,236.661 70.195,235.437 71.978,234.058C72.146,233.885 72.308,233.713 72.464,233.542C73.234,232.1 74.318,230.627 75.656,229.031C75.254,229.796 74.776,230.597 74.213,231.42C74.85,230.562 75.404,229.724 75.958,228.886C86.734,218.003 97.51,207.121 108.965,196.092C109.109,195.998 109.249,195.904 109.385,195.811C110.161,194.931 111.275,194.04 112.658,193.024C112.255,193.466 111.776,193.942 111.212,194.437C111.851,193.908 112.404,193.397 112.958,192.886C116.067,189.67 119.177,186.454 122.965,183.092C123.11,182.998 123.25,182.904 123.385,182.811C124.161,181.931 125.275,181.04 126.658,180.024C126.255,180.466 125.776,180.942 125.212,181.437C125.851,180.908 126.404,180.397 126.958,179.886C128.076,178.661 129.195,177.437 130.978,176.079C131.12,175.987 131.258,175.895 131.392,175.804C132.167,174.927 133.279,174.038 134.658,173.024C134.256,173.465 133.778,173.94 133.216,174.434C133.852,173.906 134.405,173.396 134.958,172.886C135.749,171.989 136.54,171.093 137.987,170.071C138.127,169.98 138.263,169.889 138.396,169.8C139.171,168.924 140.281,168.036 141.658,167.024C141.256,167.464 140.78,167.939 140.219,168.431C140.853,167.905 141.405,167.396 141.958,166.886C142.426,166.313 142.894,165.74 144.003,165.056C144.14,164.968 144.273,164.88 144.402,164.792C145.177,163.919 146.285,163.033 147.658,162.024C147.257,162.463 146.782,162.937 146.222,163.428C146.854,162.905 147.406,162.395 147.958,161.886C147.997,161.551 148.158,161.292 149.042,161.027C149.167,160.946 149.289,160.865 149.409,160.785C150.183,159.914 151.289,159.03 152.658,158.024C152.256,158.465 151.778,158.94 151.216,159.433C151.848,158.911 152.403,158.398 152.958,157.886C152.997,157.551 153.158,157.292 154.041,157.027C154.166,156.947 154.287,156.867 154.406,156.787C155.177,155.92 156.277,155.041 157.642,154.041C157.24,154.482 156.763,154.956 156.201,155.448C156.832,154.927 157.386,154.416 157.94,153.906C157.94,153.906 157.974,153.974 158.318,153.955C159.761,152.919 160.859,151.902 161.958,150.886C161.997,150.551 162.158,150.292 163.041,150.027C163.166,149.947 163.287,149.867 163.406,149.787C164.177,148.92 165.277,148.041 166.642,147.041C166.24,147.482 165.763,147.956 165.201,148.448C165.832,147.927 166.386,147.416 166.94,146.906C166.94,146.906 166.974,146.974 167.317,146.955C168.753,145.926 169.847,144.916 170.94,143.906C170.94,143.906 170.974,143.974 171.313,143.954C172.501,143.111 173.349,142.287 174.197,141.463C174.197,141.463 174.277,141.237 174.749,141.332C174.801,141.304 174.852,141.276 174.903,141.247C175.505,140.468 176.448,139.806 177.66,139.027C177.319,139.419 176.894,139.847 176.374,140.271C176.948,139.826 177.444,139.366 177.94,138.906C177.94,138.906 177.974,138.974 178.317,138.955C179.753,137.926 180.847,136.916 181.94,135.906C181.94,135.906 181.974,135.974 182.313,135.954C183.501,135.111 184.349,134.287 185.197,133.463C185.197,133.463 185.277,133.237 185.749,133.332C185.801,133.304 185.852,133.276 185.903,133.247C186.505,132.468 187.448,131.806 188.66,131.027C188.319,131.419 187.894,131.847 187.374,132.271C187.948,131.826 188.444,131.366 188.94,130.906C188.94,130.906 188.974,130.974 189.313,130.954C190.501,130.111 191.349,129.287 192.197,128.463C192.197,128.463 192.279,128.236 192.744,128.327C192.792,128.303 192.84,128.278 192.887,128.254C193.289,127.685 194.022,127.228 194.971,126.621C194.777,126.84 194.54,127.089 194.247,127.345C194.593,127.057 194.895,126.761 195.196,126.464C195.196,126.464 195.278,126.237 195.743,126.327C195.792,126.303 195.84,126.279 195.887,126.254C196.289,125.685 197.022,125.228 197.971,124.621C197.777,124.84 197.54,125.09 197.247,125.345C197.593,125.057 197.895,124.761 198.196,124.464C198.196,124.464 198.278,124.237 198.743,124.327C198.792,124.303 198.84,124.279 198.887,124.254C199.289,123.685 200.022,123.228 200.971,122.621C200.777,122.84 200.54,123.09 200.247,123.345C200.593,123.057 200.895,122.761 201.196,122.464C201.196,122.464 201.278,122.237 201.743,122.327C201.792,122.303 201.84,122.279 201.887,122.254C202.289,121.685 203.022,121.228 203.971,120.621C203.777,120.84 203.54,121.09 203.247,121.345C203.593,121.057 203.895,120.761 204.196,120.464C204.196,120.464 204.278,120.237 204.743,120.327C204.792,120.303 204.84,120.279 204.887,120.254C205.289,119.685 206.022,119.228 206.971,118.621C206.777,118.84 206.54,119.09 206.247,119.345C206.593,119.057 206.895,118.761 207.196,118.464C207.196,118.464 207.278,118.237 207.743,118.327C207.792,118.303 207.84,118.279 207.887,118.254C208.289,117.685 209.022,117.228 209.971,116.621C209.777,116.84 209.54,117.09 209.247,117.346C209.593,117.058 209.895,116.761 210.196,116.464C210.196,116.464 210.278,116.237 210.743,116.327C210.792,116.303 210.84,116.279 210.887,116.254C211.289,115.685 212.022,115.228 212.971,114.621C212.777,114.84 212.54,115.09 212.247,115.345C212.593,115.057 212.895,114.761 213.196,114.464C213.196,114.464 213.279,114.236 213.777,114.346C214.734,114.487 215.591,114.561 216.292,114.472C215.623,114.545 214.8,114.463 213.894,114.313C214.9,113.385 216.287,112.602 217.931,111.647C218.176,112.897 217.969,113.646 217.446,114.061C218.041,113.626 218.327,112.829 218.188,111.475C218.188,111.475 218.273,111.242 218.741,111.33C218.79,111.305 218.838,111.281 218.885,111.256C219.287,110.686 220.021,110.229 220.971,109.621C220.777,109.84 220.539,110.09 220.246,110.346C220.592,110.058 220.894,109.761 221.196,109.464C221.196,109.464 221.279,109.236 221.777,109.346C222.734,109.487 223.591,109.561 224.292,109.472C223.623,109.545 222.8,109.463 221.894,109.313C222.9,108.385 224.287,107.602 225.931,106.647C226.176,107.897 225.969,108.646 225.446,109.061C226.041,108.626 226.327,107.829 226.188,106.475C226.188,106.475 226.275,106.241 226.774,106.349C227.747,106.491 228.617,106.565 229.325,106.468C228.65,106.548 227.815,106.466 226.894,106.313C227.9,105.385 229.287,104.602 230.931,103.647C231.176,104.898 230.968,105.647 230.445,106.061C231.041,105.626 231.327,104.83 231.188,103.475C231.188,103.475 231.274,103.241 231.779,103.35C232.934,103.39 234.033,103.423 234.985,103.287C234.067,103.407 233.003,103.366 231.898,103.314C233.556,102.058 235.598,100.948 237.913,99.657C237.969,101.19 237.548,102.106 236.816,102.644C237.625,102.083 238.132,101.117 238.185,99.478C238.185,99.478 238.273,99.242 238.778,99.351C240.128,99.303 241.442,99.275 242.618,99.079C241.477,99.259 240.199,99.278 238.898,99.314C241.219,97.727 243.924,96.285 246.907,94.661C246.756,96.403 246.127,97.478 245.191,98.146C246.205,97.452 246.923,96.326 247.185,94.478C247.185,94.478 247.273,94.243 247.778,94.351C249.13,94.303 250.445,94.275 251.622,94.078C250.48,94.259 249.2,94.278 247.898,94.314C250.219,92.727 252.924,91.285 255.907,89.661C255.756,91.403 255.127,92.478 254.19,93.146C255.205,92.452 255.923,91.326 256.185,89.478C256.185,89.478 256.273,89.243 256.778,89.351C259.014,89.06 260.916,88.995 262.449,88.21C260.916,88.995 259.014,89.06 256.899,89.314C270.288,82.317 283.821,74.91 297.902,68.756C314.782,61.378 332.13,55.069 349.638,48.232C348.8,49.345 347.807,51.085 346.367,51.617C347.807,51.085 348.8,49.345 350.001,48.167C350.447,48.125 350.893,48.083 351.811,48.366C351.921,48.388 352.032,48.409 352.143,48.429C356.426,46.544 360.849,44.922 365.637,43.233C364.977,44.739 363.293,46.118 361.182,47.107C363.388,46.112 365.178,44.711 366.001,43.167C366.447,43.125 366.893,43.083 367.81,43.364C368.495,43.602 369.143,43.777 369.753,43.887C369.24,43.783 368.702,43.629 368.142,43.427C370.431,42.207 372.859,41.247 375.644,40.227C375.199,41.906 374.408,42.991 373.338,43.56C374.502,42.993 375.392,41.889 376.001,40.167C376.447,40.125 376.893,40.083 377.803,40.359C378.588,40.788 379.264,41.043 379.846,41.145C379.348,41.035 378.779,40.799 378.135,40.422C379.441,39.532 380.879,38.897 382.659,38.214C382.561,39.469 382.214,40.402 381.581,40.873C382.305,40.406 382.743,39.456 383.001,38.167C383.447,38.125 383.893,38.083 384.803,38.359C385.588,38.788 386.264,39.043 386.846,39.145C386.348,39.035 385.779,38.799 385.135,38.422C386.441,37.532 387.879,36.897 389.659,36.214C389.561,37.469 389.214,38.402 388.581,38.873C389.305,38.406 389.743,37.456 390.001,36.167C390.447,36.125 390.893,36.083 391.77,36.323C391.935,36.291 392.088,36.252 392.233,36.208C392.586,35.764 393.034,35.471 393.711,35.174C393.567,35.392 393.362,35.612 393.113,35.811C393.439,35.616 393.72,35.391 394.001,35.167C394.753,35.123 395.505,35.08 396.729,35.32C396.913,35.286 397.084,35.245 397.242,35.196C397.594,34.758 398.04,34.469 398.711,34.174C398.57,34.388 398.369,34.604 398.126,34.801C398.449,34.608 398.725,34.387 399.001,34.167C399.447,34.125 399.893,34.083 400.77,34.323C400.935,34.291 401.088,34.252 401.233,34.208C401.586,33.764 402.034,33.471 402.711,33.174C402.567,33.392 402.362,33.612 402.113,33.811C402.439,33.616 402.72,33.391 403.001,33.167C403.447,33.125 403.893,33.083 404.77,33.323C404.935,33.291 405.088,33.252 405.233,33.208C405.586,32.764 406.034,32.471 406.711,32.174C406.567,32.392 406.362,32.612 406.113,32.811C406.439,32.616 406.72,32.391 407.001,32.167C407.753,32.123 408.505,32.08 409.729,32.32C409.913,32.286 410.084,32.245 410.242,32.196C410.594,31.758 411.04,31.469 411.711,31.174C411.57,31.388 411.369,31.604 411.126,31.801C411.449,31.608 411.725,31.387 412.001,31.167C412.447,31.125 412.893,31.083 413.77,31.323C413.935,31.291 414.088,31.252 414.233,31.208C414.586,30.764 415.034,30.471 415.711,30.174C415.567,30.392 415.362,30.612 415.113,30.811C415.439,30.616 415.72,30.391 416.001,30.167C416.753,30.123 417.505,30.08 418.729,30.32C418.913,30.286 419.084,30.245 419.242,30.196C419.594,29.758 420.04,29.469 420.711,29.174C420.57,29.388 420.369,29.604 420.126,29.801C420.449,29.608 420.725,29.387 421.001,29.167C421.753,29.123 422.505,29.08 423.729,29.32C423.913,29.286 424.084,29.245 424.242,29.196C424.594,28.758 425.04,28.469 425.711,28.174C425.57,28.388 425.369,28.604 425.126,28.801C425.449,28.608 425.725,28.387 426.001,28.167C426.753,28.123 427.505,28.08 428.729,28.32C428.913,28.286 429.084,28.245 429.242,28.196C429.594,27.758 430.04,27.469 430.711,27.174C430.57,27.388 430.369,27.604 430.126,27.801C430.449,27.608 430.725,27.387 431.001,27.167C432.07,27.123 433.139,27.079 434.705,27.319C434.9,27.285 435.08,27.241 435.247,27.19C435.598,26.756 436.043,26.467 436.711,26.174C436.571,26.386 436.373,26.6 436.133,26.795C436.454,26.603 436.727,26.385 437.001,26.167C438.07,26.123 439.139,26.079 440.705,26.319C440.9,26.285 441.08,26.241 441.247,26.19C441.598,25.756 442.043,25.467 442.711,25.174C442.571,25.386 442.373,25.6 442.133,25.795C442.454,25.603 442.727,25.385 443.001,25.167C444.392,25.123 445.784,25.079 447.688,25.319C447.892,25.284 448.078,25.239 448.25,25.186C448.601,24.754 449.045,24.467 449.711,24.174C449.572,24.385 449.375,24.598 449.138,24.791C449.457,24.601 449.729,24.384 450.001,24.167C451.718,24.123 453.435,24.079 455.677,24.319C455.886,24.283 456.076,24.237 456.252,24.183C456.602,23.753 457.047,23.466 457.711,23.174C457.573,23.384 457.377,23.596 457.141,23.789C457.459,23.599 457.73,23.383 458.001,23.167C459.718,23.123 461.435,23.079 463.677,23.319C463.886,23.283 464.076,23.237 464.252,23.183C464.602,22.753 465.047,22.466 465.711,22.174C465.573,22.384 465.377,22.596 465.14,22.789C465.459,22.599 465.73,22.383 466.001,22.167C468.374,22.123 470.748,22.079 473.661,22.319C473.877,22.282 474.074,22.235 474.255,22.18C474.605,21.751 475.048,21.465 475.711,21.174C475.573,21.383 475.379,21.594 475.144,21.786C475.462,21.597 475.732,21.382 476.001,21.167C479.365,21.123 482.73,21.079 486.648,21.319C486.87,21.282 487.072,21.234 487.257,21.177C487.607,20.75 488.05,20.465 488.711,20.174C488.574,20.382 488.381,20.592 488.148,20.783C488.465,20.595 488.733,20.381 489.001,20.167C505.358,20.123 521.715,20.079 538.623,20.322C539.797,20.702 540.421,20.796 541.045,20.889C543.734,20.938 546.424,20.986 549.643,21.322C550.797,21.702 551.421,21.796 552.045,21.889C554.405,21.938 556.765,21.986 559.649,22.322C560.797,22.702 561.421,22.796 562.045,22.889C563.425,22.938 564.804,22.986 566.678,23.322C567.797,23.702 568.421,23.796 569.045,23.889C570.425,23.938 571.804,23.986 573.678,24.322C574.797,24.702 575.421,24.796 576.045,24.889C577.103,24.937 578.161,24.986 579.787,25.386C581.173,25.94 581.99,26.142 582.807,26.344C583.299,26.242 583.791,26.14 584.686,26.34C585.742,26.724 586.394,26.806 587.045,26.889C588.103,26.937 589.16,26.986 590.787,27.386C592.173,27.94 592.99,28.142 593.807,28.344C594.289,28.242 594.772,28.141 595.806,28.405C597.155,29.025 597.953,29.279 598.751,29.532C599.239,29.369 599.726,29.205 600.785,29.406C602.155,30.025 602.953,30.279 603.751,30.532C604.242,30.369 604.733,30.205 605.757,30.439C608.454,31.344 610.617,31.85 612.781,32.357C613.273,32.251 613.766,32.145 614.759,32.427C621.015,34.584 626.826,36.196 632.498,38.201C634.631,38.955 636.443,40.62 638.401,41.87C630.756,44.581 622.902,46.822 615.51,50.103C600.269,56.869 585.31,64.268 570.143,71.206C567.722,72.313 564.771,73.021 562.157,72.805C554.482,72.171 546.877,70.52 539.199,70.106C526.113,69.401 512.938,68.429 499.9,69.218C481.554,70.327 463.221,72.4 445.024,75.036C415.67,79.287 386.945,86.53 359.209,97.045C338.887,104.748 318.796,113.157 299.002,122.133C272.845,133.996 248.021,148.425 224.535,164.948C208.19,176.449 192.448,188.815 176.564,200.961C153.82,218.354 134.07,239.006 114.247,259.492C103.034,271.081 93.006,283.819 82.502,296.09C80.764,298.121 79.976,300.049 82.17,302.798C99.253,324.19 117.567,344.498 137.721,362.969C154.938,378.749 172.787,393.912 191.126,408.373C206.376,420.397 222.745,431.003 238.87,442.922C239.029,443.057 239.186,443.185 239.341,443.306C240.304,443.637 241.335,444.279 242.567,445.103C242.138,444.95 241.664,444.756 241.159,444.506C241.723,444.817 242.266,445.07 242.809,445.323C244.094,445.971 245.378,446.618 246.877,447.935C247.094,448.741 247.362,449.392 247.674,449.91C247.42,449.454 247.207,448.894 247.042,448.216C248.763,448.841 250.533,449.855 252.553,451.096C251.422,451.557 250.348,451.739 249.434,451.452C250.402,451.807 251.546,451.683 252.801,451.324C253.124,451.333 253.447,451.342 253.945,451.978C254.08,452.093 254.213,452.203 254.345,452.307C255.308,452.639 256.337,453.28 257.567,454.103C257.132,453.948 256.65,453.75 256.136,453.494C256.704,453.808 257.256,454.066 257.809,454.323C258.13,454.333 258.451,454.343 258.932,454.979C259.082,455.559 259.259,456.058 259.463,456.485C259.3,456.118 259.159,455.696 259.042,455.216C260.763,455.841 262.533,456.855 264.553,458.096C263.403,458.565 262.313,458.745 261.389,458.437C262.362,458.811 263.524,458.689 264.801,458.324C265.124,458.333 265.447,458.342 265.921,458.955C266.008,459.059 266.095,459.161 266.183,459.263C272.524,462.222 278.907,465.54 285.542,469.091C282.035,468.917 278.753,468.129 275.713,466.722C278.806,468.192 282.162,469.043 285.798,469.327C286.122,469.335 286.445,469.343 286.921,469.955C286.987,470.047 287.053,470.138 287.117,470.229C309.988,479.882 332.612,490.639 355.907,499.662C372.889,506.24 390.76,510.522 408.503,516.099C400.875,514.641 392.81,513.458 385.118,511.072C392.81,513.458 400.875,514.641 408.771,516.37C409.266,516.26 409.76,516.149 410.76,516.43C414.768,517.67 418.27,518.519 421.772,519.369C422.263,519.259 422.753,519.149 423.8,519.405C425.155,520.025 425.953,520.279 426.751,520.532C427.248,520.368 427.744,520.204 428.665,520.341C429.742,520.724 430.394,520.807 431.045,520.889C432.103,520.938 433.16,520.986 434.787,521.386C436.173,521.94 436.99,522.142 437.807,522.344C438.299,522.242 438.791,522.141 439.686,522.34C440.742,522.724 441.394,522.807 442.045,522.889C443.103,522.938 444.16,522.986 445.695,523.322C446.797,523.702 447.421,523.796 448.046,523.889C449.425,523.938 450.804,523.986 452.678,524.322C453.797,524.702 454.421,524.796 455.046,524.889C456.75,524.938 458.454,524.986 460.666,525.322C461.797,525.702 462.421,525.796 463.046,525.889C464.75,525.938 466.454,525.986 468.666,526.322C469.797,526.702 470.421,526.796 471.046,526.889C473.405,526.938 475.765,526.986 478.649,527.322C479.797,527.702 480.421,527.796 481.046,527.889C485.723,527.938 490.4,527.986 495.625,528.322C496.797,528.702 497.421,528.796 498.046,528.889C507.388,528.937 516.73,528.986 526.653,529.321C526.883,529.279 527.084,529.223 527.263,529.156C527.491,528.853 527.814,528.648 528.315,528.341C528.253,528.451 528.157,528.58 528.036,528.713C528.241,528.547 528.414,528.366 528.586,528.185C537.444,526.028 543.891,530.398 550.307,535.683C555.073,539.61 560.49,542.748 565.869,546.922C566.029,547.057 566.186,547.185 566.34,547.306C567.304,547.637 568.335,548.279 569.567,549.103C569.138,548.95 568.664,548.756 568.159,548.506C568.723,548.817 569.266,549.07 569.809,549.323C570.13,549.333 570.451,549.343 570.932,549.979C571.081,550.559 571.259,551.058 571.463,551.485C571.3,551.118 571.159,550.696 571.042,550.216C572.763,550.841 574.533,551.855 576.552,553.096C575.403,553.565 574.313,553.745 573.389,553.437C574.362,553.811 575.524,553.689 576.801,553.324C577.124,553.333 577.447,553.342 577.922,553.955C578.151,554.122 578.38,554.287 578.608,554.451C588.259,558.778 597.954,563.452 607.971,568.282C606.53,568.764 605.127,569.234 603.361,569.768C599.203,567.528 595.399,565.235 591.613,562.913ZM449.126,105.801C449.449,105.608 449.725,105.387 450.001,105.167C454.332,104.636 458.666,104.119 462.994,103.561C463.625,103.479 464.225,103.072 464.852,103.039C471.916,102.668 478.999,101.892 486.044,102.143C491.83,102.348 497.553,103.953 503.34,104.637C509.759,105.395 516.218,105.813 523.77,106.476C470.367,159.077 438.272,221.175 435.063,296.386C431.869,371.259 453.974,437.523 504.418,494.421C499.431,494.986 494.978,495.744 490.499,495.959C454.043,497.705 419.951,489.084 388.54,470.899C376.14,463.721 364.624,454.805 353.46,445.75C334.407,430.295 320.583,410.538 309.394,388.853C299.573,369.819 292.341,349.939 290.006,328.531C288.775,317.245 286.846,305.873 287.231,294.608C288.109,268.911 293.228,244.033 303.805,220.289C315.607,193.794 332.717,171.365 353.82,151.823C359.207,146.834 365.428,142.746 371.95,138.095C372.094,138.003 372.231,137.914 372.363,137.825C372.933,137.155 373.827,136.471 374.945,135.635C374.692,135.91 374.394,136.216 374.042,136.541C374.463,136.173 374.831,135.818 375.198,135.462C375.198,135.462 375.279,135.236 375.744,135.327C375.792,135.303 375.84,135.278 375.887,135.254C376.289,134.685 377.022,134.228 377.971,133.621C377.777,133.84 377.54,134.089 377.247,134.345C377.593,134.057 377.895,133.761 378.196,133.464C378.196,133.464 378.279,133.236 378.777,133.346C379.734,133.487 380.591,133.561 381.292,133.472C380.623,133.545 379.8,133.463 378.894,133.313C379.9,132.385 381.287,131.602 382.931,130.647C383.176,131.897 382.969,132.646 382.446,133.061C383.041,132.626 383.327,131.829 383.188,130.475C383.188,130.475 383.274,130.241 383.779,130.35C386.016,130.059 387.847,129.898 389.463,129.22C387.847,129.898 386.016,130.059 383.899,130.314C398.577,121.254 414.562,114.447 431.636,109.233C430.798,110.345 429.802,111.996 428.36,112.626C429.802,111.996 430.798,110.345 432.001,109.167C432.447,109.125 432.893,109.083 433.77,109.323C433.935,109.291 434.088,109.252 434.233,109.208C434.586,108.764 435.034,108.471 435.711,108.174C435.567,108.392 435.362,108.612 435.113,108.811C435.439,108.616 435.72,108.391 436.001,108.167C436.447,108.125 436.893,108.083 437.77,108.323C437.935,108.291 438.088,108.252 438.233,108.208C438.586,107.764 439.034,107.471 439.711,107.174C439.567,107.392 439.362,107.612 439.113,107.811C439.439,107.616 439.72,107.391 440.001,107.167C440.753,107.123 441.505,107.08 442.729,107.32C442.913,107.286 443.084,107.245 443.242,107.196C443.594,106.758 444.04,106.469 444.711,106.174C444.57,106.388 444.369,106.604 444.126,106.801C444.449,106.608 444.725,106.387 445.001,106.167C445.753,106.123 446.505,106.08 447.729,106.32C447.913,106.286 448.084,106.245 448.242,106.196C448.594,105.758 449.04,105.469 449.711,105.174C449.57,105.388 449.369,105.604 449.126,105.801ZM353.869,226.6C357.049,241.295 365.329,251.646 379.578,257.022C392.823,262.02 406.05,261.584 417.945,254.254C436.804,242.631 443.087,218.924 434.004,199.325C427.712,185.747 417.475,177.062 402.105,174.844C388.02,172.811 375.854,176.091 365.507,185.976C353.947,197.018 350.868,210.586 353.869,226.6ZM554.907,367.786C554.958,368.112 555.009,368.44 555.059,368.772C549.068,355.245 545.924,340.829 544.994,325.9C544.697,321.131 544.054,316.367 544.046,311.6C544,284.612 549.645,258.927 562.038,234.84C563.909,231.203 565.784,227.567 567.913,223.723C567.614,226.005 567.563,228.754 566.429,230.943C567.563,228.754 567.614,226.005 568.168,223.515C568.168,223.515 568.231,223.284 568.697,223.28C568.74,223.231 568.781,223.182 568.822,223.132C568.92,222.352 569.337,221.596 569.952,220.684C569.889,221.081 569.766,221.525 569.562,221.986C569.811,221.495 569.989,221.005 570.168,220.514C570.168,220.514 570.231,220.284 570.698,220.28C570.74,220.231 570.782,220.182 570.822,220.132C570.92,219.352 571.337,218.596 571.952,217.684C571.889,218.081 571.766,218.525 571.562,218.987C571.811,218.495 571.989,218.005 572.168,217.514C572.168,217.514 572.231,217.284 572.698,217.28C572.74,217.231 572.781,217.182 572.822,217.132C572.921,216.351 573.337,215.596 573.952,214.684C573.889,215.081 573.766,215.525 573.562,215.987C573.811,215.495 573.989,215.005 574.168,214.514C574.168,214.514 574.231,214.284 574.698,214.28C574.74,214.231 574.781,214.182 574.822,214.132C574.92,213.352 575.337,212.596 575.952,211.684C575.889,212.081 575.766,212.525 575.562,212.987C575.811,212.495 575.989,212.005 576.168,211.514C576.168,211.514 576.246,211.27 576.741,211.313C576.798,211.252 576.853,211.191 576.907,211.129C577.288,209.994 578.009,208.929 578.94,207.696C578.724,208.266 578.447,208.884 578.089,209.514C578.495,208.851 578.831,208.183 579.167,207.515C579.167,207.515 579.246,207.271 579.734,207.315C579.796,207.251 579.857,207.186 579.917,207.122C580.515,205.749 581.454,204.451 582.665,203.024C582.315,203.788 581.872,204.596 581.322,205.407C581.926,204.572 582.442,203.729 582.958,202.886C589.067,196.67 595.177,190.454 601.965,184.092C602.109,183.998 602.25,183.904 602.386,183.811C603.161,182.931 604.275,182.04 605.658,181.024C605.255,181.466 604.776,181.942 604.212,182.437C604.851,181.908 605.404,181.397 605.958,180.885C605.997,180.551 606.158,180.292 607.041,180.027C607.166,179.947 607.287,179.867 607.406,179.787C608.177,178.92 609.277,178.041 610.642,177.041C610.24,177.482 609.763,177.956 609.201,178.448C609.832,177.927 610.386,177.416 610.94,176.906C610.94,176.906 610.974,176.974 611.317,176.955C612.753,175.926 613.847,174.916 614.94,173.906C614.94,173.906 614.974,173.974 615.313,173.954C616.501,173.111 617.349,172.287 618.197,171.463C618.197,171.463 618.279,171.236 618.744,171.327C618.792,171.303 618.84,171.278 618.887,171.254C619.289,170.685 620.022,170.228 620.971,169.621C620.778,169.84 620.54,170.089 620.247,170.345C620.593,170.057 620.895,169.761 621.197,169.464C621.197,169.464 621.278,169.237 621.743,169.327C621.792,169.303 621.84,169.279 621.887,169.254C622.289,168.685 623.022,168.228 623.971,167.621C623.777,167.84 623.54,168.089 623.247,168.345C623.593,168.057 623.895,167.761 624.197,167.464C624.197,167.464 624.278,167.237 624.743,167.327C624.792,167.303 624.84,167.279 624.887,167.254C625.289,166.685 626.022,166.228 626.971,165.621C626.777,165.84 626.54,166.089 626.247,166.345C626.593,166.057 626.895,165.761 627.197,165.464C627.197,165.464 627.279,165.236 627.787,165.363C629.899,165.311 631.504,165.131 633.108,164.951C637.066,169.698 641.025,174.444 645.007,179.845C645.035,180.705 645.039,180.909 645.043,181.114C640.239,185.029 635.476,188.995 630.624,192.849C617.591,203.2 606.806,215.662 598.213,229.754C588.384,245.874 581.027,263.139 578.971,282.23C578.149,289.868 577.247,297.497 576.211,305.815C576.193,305.91 576.177,305.997 576.162,306.077C577.146,305.179 578.545,304.73 578.923,303.846C584.589,290.577 590.107,277.246 595.914,263.721C595.838,265.555 595.985,267.836 595.102,269.602C595.985,267.836 595.838,265.555 596.168,263.513C596.168,263.513 596.232,263.283 596.698,263.28C596.74,263.23 596.782,263.181 596.822,263.132C596.921,262.351 597.337,261.596 597.952,260.684C597.889,261.081 597.766,261.525 597.562,261.986C597.811,261.495 597.989,261.005 598.168,260.514C598.168,260.514 598.231,260.284 598.698,260.28C598.74,260.231 598.781,260.181 598.822,260.132C598.921,259.351 599.337,258.596 599.952,257.684C599.889,258.081 599.766,258.525 599.562,258.986C599.811,258.495 599.989,258.005 600.168,257.514C600.168,257.514 600.231,257.284 600.698,257.28C600.74,257.231 600.781,257.181 600.822,257.132C600.92,256.351 601.337,255.596 601.952,254.684C601.889,255.081 601.766,255.525 601.562,255.987C601.811,255.495 601.989,255.005 602.168,254.514C602.168,254.514 602.231,254.284 602.698,254.28C602.74,254.231 602.781,254.182 602.822,254.132C602.921,253.352 603.337,252.596 603.952,251.684C603.889,252.081 603.766,252.525 603.562,252.987C603.811,252.495 603.989,252.005 604.168,251.514C604.168,251.514 604.246,251.27 604.741,251.313C604.798,251.252 604.853,251.191 604.907,251.129C605.288,249.994 606.009,248.929 606.94,247.696C606.724,248.266 606.447,248.884 606.089,249.514C606.495,248.851 606.831,248.183 607.167,247.515C607.167,247.515 607.246,247.271 607.734,247.315C607.796,247.251 607.857,247.186 607.917,247.122C608.515,245.749 609.453,244.451 610.665,243.024C610.315,243.788 609.872,244.596 609.322,245.407C609.926,244.572 610.442,243.729 610.958,242.886C610.997,242.551 611.158,242.292 612.042,242.006C612.181,241.86 612.317,241.716 612.449,241.572C613.22,240.121 614.309,238.638 615.656,237.031C615.245,237.813 614.754,238.633 614.174,239.476C614.823,238.603 615.39,237.744 615.958,236.886C619.734,233.003 623.51,229.121 627.965,225.092C628.109,224.998 628.25,224.904 628.386,224.811C629.161,223.931 630.275,223.04 631.658,222.024C631.255,222.466 630.776,222.942 630.212,223.437C630.851,222.908 631.404,222.397 631.958,221.885C631.997,221.551 632.158,221.292 633.042,221.027C633.167,220.946 633.289,220.865 633.409,220.785C634.183,219.914 635.289,219.03 636.658,218.024C636.256,218.465 635.778,218.94 635.216,219.433C635.848,218.91 636.403,218.398 636.958,217.885C636.997,217.551 637.158,217.292 638.041,217.027C638.166,216.947 638.287,216.867 638.406,216.787C639.177,215.92 640.277,215.041 641.642,214.041C641.24,214.482 640.763,214.956 640.201,215.448C640.832,214.927 641.386,214.416 641.94,213.906C641.94,213.906 641.974,213.974 642.313,213.954C643.501,213.111 644.349,212.287 645.197,211.463C645.197,211.463 645.28,211.235 645.777,211.346C646.731,211.486 647.587,211.561 648.286,211.472C647.618,211.545 646.798,211.463 645.894,211.313C646.9,210.385 648.287,209.602 649.931,208.647C650.176,209.897 649.969,210.646 649.446,211.06C650.041,210.626 650.327,209.829 650.188,208.475C650.188,208.475 650.275,208.241 650.774,208.349C651.747,208.491 652.618,208.565 653.325,208.468C652.65,208.548 651.815,208.466 650.894,208.313C651.9,207.385 653.287,206.602 654.931,205.647C655.176,206.898 654.968,207.647 654.445,208.061C655.041,207.627 655.327,206.83 655.188,205.475C655.188,205.475 655.273,205.242 655.741,205.33C655.79,205.305 655.838,205.281 655.885,205.256C656.287,204.686 657.021,204.229 657.971,203.621C657.777,203.84 657.539,204.09 657.246,204.347C657.592,204.058 657.894,203.761 658.197,203.464C658.197,203.464 658.284,203.232 658.797,203.371C660.152,203.674 660.993,203.837 661.833,204.001C669.737,215.855 674.574,229.115 678.678,242.568C684.46,261.52 687.621,281.002 686.938,300.877C686.052,326.625 681.084,351.515 670.988,375.392C659.222,403.217 641.584,426.661 619.538,447.039C617.48,448.941 616.22,449.239 613.699,447.417C603.062,439.727 593.21,431.197 585.312,420.713C578.236,411.321 571.761,401.477 564.969,391.147C564.892,390.965 564.815,390.792 564.74,390.628C564.183,390.146 563.618,389.4 563.103,388.364C563.45,388.609 563.779,388.959 564.102,389.407C563.785,388.87 563.476,388.435 563.167,388.001C561.779,385.257 560.39,382.513 559.085,379.222C559.054,379.083 559.021,378.953 558.987,378.83C558.592,378.532 558.323,378.057 558.108,377.301C558.325,377.443 558.524,377.677 558.691,377.984C558.525,377.599 558.346,377.3 558.167,377.001C557.777,376.234 557.386,375.468 557.082,374.188C557.053,374.063 557.023,373.945 556.992,373.834C556.595,373.537 556.324,373.06 556.108,372.301C556.329,372.446 556.531,372.686 556.701,373C556.532,372.611 556.349,372.306 556.167,372.001C555.776,371.234 555.386,370.468 555.11,369.098C555.042,368.65 554.975,368.213 554.907,367.786ZM576.042,307.011C576.034,307.15 576.031,307.292 576.025,307.47C576.042,308.534 576.075,309.243 575.897,310.267C575.571,312.494 575.455,314.405 575.339,316.317C575.455,314.405 575.571,312.494 576.174,310.187C576.456,308.9 576.249,308.008 576.042,307.115L576.042,307.011ZM421.507,519.101C418.27,518.519 414.768,517.67 411.014,516.494C414.255,517.057 417.748,517.946 421.507,519.101ZM612.529,32.109C610.617,31.85 608.454,31.344 606.026,30.502C607.934,30.732 610.106,31.296 612.529,32.109ZM45.639,264.049C44.847,265.569 43.754,267.231 42.283,268.917C43.05,267.357 44.195,265.775 45.639,264.049ZM49.639,259.049C48.847,260.569 47.754,262.231 46.283,263.917C47.05,262.357 48.195,260.775 49.639,259.049ZM53.657,254.031C52.859,255.555 51.761,257.224 50.284,258.917C51.056,257.352 52.206,255.764 53.657,254.031ZM23.931,292.705C25.145,295.004 24.39,296.507 21.289,296.916C21.835,295.592 22.764,294.245 23.931,292.705ZM20.634,297.059C20.956,298.357 20.969,299.802 20.97,301.681C18.664,300.747 18.222,299.14 20.634,297.059ZM161.66,151.023C160.859,151.902 159.761,152.919 158.284,153.938C159.058,153.013 160.21,152.087 161.66,151.023ZM170.643,144.04C169.847,144.916 168.753,145.926 167.283,146.938C168.053,146.018 169.199,145.097 170.643,144.04ZM181.643,136.04C180.847,136.916 179.753,137.926 178.283,138.938C179.053,138.018 180.199,137.097 181.643,136.04ZM173.946,141.634C173.349,142.287 172.501,143.111 171.279,143.937C171.835,143.228 172.765,142.517 173.946,141.634ZM184.946,133.634C184.349,134.287 183.501,135.111 182.279,135.937C182.835,135.228 183.765,134.517 184.946,133.634ZM191.946,128.634C191.349,129.287 190.501,130.111 189.279,130.937C189.835,130.228 190.765,129.517 191.946,128.634ZM540.903,20.618C540.421,20.796 539.797,20.702 539.087,20.388C539.588,20.227 540.174,20.288 540.903,20.618ZM603.59,30.27C602.953,30.279 602.155,30.025 601.052,29.47C601.641,29.448 602.535,29.727 603.59,30.27ZM551.903,21.618C551.421,21.796 550.797,21.702 550.087,21.388C550.588,21.227 551.174,21.288 551.903,21.618ZM497.903,528.619C497.421,528.796 496.797,528.702 496.087,528.388C496.588,528.227 497.174,528.287 497.903,528.619ZM480.903,527.619C480.421,527.796 479.797,527.702 479.087,527.388C479.588,527.227 480.174,527.287 480.903,527.619ZM470.903,526.619C470.421,526.796 469.797,526.702 469.087,526.388C469.588,526.227 470.174,526.288 470.903,526.619ZM462.903,525.619C462.421,525.796 461.797,525.702 461.087,525.388C461.588,525.227 462.174,525.288 462.903,525.619ZM454.903,524.619C454.421,524.796 453.797,524.702 453.087,524.388C453.588,524.227 454.174,524.287 454.903,524.619ZM447.903,523.619C447.421,523.796 446.797,523.702 446.087,523.388C446.588,523.227 447.174,523.288 447.903,523.619ZM441.938,522.641C441.394,522.807 440.742,522.724 439.937,522.404C440.466,522.243 441.148,522.318 441.938,522.641ZM437.568,522.119C436.99,522.142 436.173,521.94 435.179,521.452C435.778,521.409 436.554,521.651 437.568,522.119ZM430.938,520.641C430.394,520.807 429.742,520.724 428.937,520.404C429.466,520.243 430.148,520.318 430.938,520.641ZM426.59,520.269C425.953,520.279 425.155,520.025 424.052,519.47C424.641,519.448 425.535,519.727 426.59,520.269ZM598.59,29.27C597.953,29.279 597.155,29.025 596.052,28.47C596.641,28.448 597.535,28.727 598.59,29.27ZM561.903,22.618C561.421,22.796 560.797,22.702 560.087,22.388C560.588,22.227 561.174,22.288 561.903,22.618ZM568.903,23.618C568.421,23.796 567.797,23.702 567.087,23.388C567.588,23.227 568.174,23.288 568.903,23.618ZM575.903,24.618C575.421,24.796 574.797,24.702 574.087,24.388C574.588,24.227 575.174,24.288 575.903,24.618ZM593.568,28.119C592.99,28.142 592.173,27.94 591.179,27.452C591.778,27.409 592.554,27.651 593.568,28.119ZM582.568,26.119C581.99,26.142 581.173,25.94 580.179,25.452C580.778,25.409 581.554,25.651 582.568,26.119ZM586.938,26.641C586.394,26.806 585.742,26.724 584.937,26.404C585.466,26.243 586.148,26.318 586.938,26.641ZM632.962,164.65C631.504,165.131 629.899,165.311 627.904,165.33C629.162,164.13 630.606,161.753 632.962,164.65ZM614.643,174.04C613.847,174.916 612.753,175.926 611.283,176.938C612.053,176.018 613.199,175.097 614.643,174.04ZM644.946,211.634C644.349,212.287 643.501,213.111 642.279,213.937C642.835,213.228 643.765,212.517 644.946,211.634ZM617.946,171.634C617.349,172.287 616.501,173.111 615.279,173.937C615.835,173.228 616.765,172.517 617.946,171.634ZM661.809,203.693C660.993,203.837 660.152,203.674 658.917,203.337C659.609,203.238 660.697,203.311 661.809,203.693ZM645.276,181.012C645.039,180.909 645.035,180.705 645.037,180.193C645.198,180.227 645.353,180.569 645.276,181.012Z" style="fill:rgb(21,118,186);"/>
</svg>
