<?xml version="1.0" encoding="UTF-8" standalone="no"?>
<!DOCTYPE svg PUBLIC "-//W3C//DTD SVG 1.1//EN" "http://www.w3.org/Graphics/SVG/1.1/DTD/svg11.dtd">
<svg width="100%" height="100%" viewBox="0 0 1080 1080" version="1.1" xmlns="http://www.w3.org/2000/svg" xmlns:xlink="http://www.w3.org/1999/xlink" xml:space="preserve" xmlns:serif="http://www.serif.com/" style="fill-rule:evenodd;clip-rule:evenodd;stroke-linejoin:round;stroke-miterlimit:2;">
    <path d="M989.752,446.407L989.752,799.664L540,1059.33L90.248,799.664L90.248,280.336L540,20.671L844.832,196.666L800.619,222.192L540,71.724L134.461,305.862L134.461,774.138L540,1008.28L945.539,774.138L945.539,471.933L989.752,446.407Z" style="fill:rgb(21,118,186);"/>
    <g transform="matrix(0.791076,0,0,0.791076,112.819,112.819)">
        <path d="M989.752,461.435L989.752,799.664L540,1059.33L90.248,799.664L90.248,280.336L540,20.671L832.221,189.385L832.221,370.485L989.752,461.435Z" style="fill:rgb(21,118,186);"/>
    </g>
    <g id="Polygon" transform="matrix(0.210858,0,0,0.210858,801.677,208.685)">
        <path d="M540,20.671L989.752,280.336L989.752,799.664L540,1059.33L90.248,799.664L90.248,280.336L540,20.671Z" style="fill:rgb(222,166,47);"/>
    </g>
    <g transform="matrix(0.91408,0,0,0.91408,-134.248,187.397)">
        <g transform="matrix(315.071,0,0,315.071,445.322,492.744)">
            <path d="M0.284,-0.23L0.284,-0.405C0.324,-0.405 0.344,-0.421 0.344,-0.451C0.344,-0.479 0.328,-0.493 0.298,-0.493C0.267,-0.493 0.251,-0.474 0.251,-0.436L0.251,-0L0.053,-0L0.053,-0.415C0.053,-0.458 0.058,-0.493 0.066,-0.521C0.075,-0.548 0.09,-0.574 0.11,-0.598C0.134,-0.624 0.163,-0.645 0.198,-0.66C0.233,-0.675 0.27,-0.683 0.307,-0.683C0.375,-0.683 0.432,-0.66 0.478,-0.615C0.524,-0.569 0.547,-0.513 0.547,-0.445C0.547,-0.38 0.526,-0.327 0.485,-0.286C0.447,-0.249 0.39,-0.23 0.314,-0.23L0.284,-0.23Z" style="fill:white;fill-rule:nonzero;"/>
        </g>
        <g transform="matrix(315.071,0,0,315.071,622.396,492.744)">
            <path d="M0.265,-0.475L0.265,-0L0.067,-0L0.067,-0.667L0.325,-0.667C0.438,-0.667 0.527,-0.641 0.591,-0.589C0.667,-0.528 0.706,-0.444 0.706,-0.339C0.706,-0.238 0.673,-0.156 0.608,-0.092C0.543,-0.028 0.459,0.004 0.356,0.004C0.344,0.004 0.325,0.003 0.297,0.002L0.297,-0.194L0.329,-0.194C0.445,-0.194 0.502,-0.242 0.502,-0.339C0.502,-0.429 0.446,-0.475 0.332,-0.475L0.265,-0.475Z" style="fill:white;fill-rule:nonzero;"/>
        </g>
        <g transform="matrix(315.071,0,0,315.071,853.007,492.744)">
            <path d="M0.357,-0.475L0.357,-0L0.159,-0L0.159,-0.475L0.007,-0.475L0.007,-0.667L0.508,-0.667L0.508,-0.475L0.357,-0.475Z" style="fill:white;fill-rule:nonzero;"/>
        </g>
    </g>
</svg>
