<?xml version="1.0" encoding="UTF-8" standalone="no"?>
<!DOCTYPE svg PUBLIC "-//W3C//DTD SVG 1.1//EN" "http://www.w3.org/Graphics/SVG/1.1/DTD/svg11.dtd">
<svg width="100%" height="100%" viewBox="0 0 1080 1080" version="1.1" xmlns="http://www.w3.org/2000/svg" xmlns:xlink="http://www.w3.org/1999/xlink" xml:space="preserve" xmlns:serif="http://www.serif.com/" style="fill-rule:evenodd;clip-rule:evenodd;stroke-linejoin:round;stroke-miterlimit:2;">
    <path d="M158.057,604.936C154.663,590.241 150.887,576.036 148.101,561.64C144.935,545.272 142.632,528.735 139.996,512.265C138.339,501.916 136.726,491.561 135.175,481.196C134.907,479.401 135.122,477.538 134.989,475.716C133.689,457.957 132.295,440.204 131.075,422.44C130.542,414.681 130.091,406.899 130.048,399.125C129.916,375.462 129.871,351.796 130.04,328.133C130.181,308.193 130.352,288.244 131.109,268.322C131.652,254.028 133.184,239.772 134.312,225C136.295,225 138.094,225.122 139.871,224.981C160.399,223.361 180.943,221.901 201.443,219.982C215.651,218.652 229.826,216.874 243.959,214.894C250.248,214.013 256.423,212.241 262.605,210.696C276.839,207.141 291.197,203.977 305.217,199.709C317.828,195.871 330.096,190.883 342.437,186.195C350.915,182.975 359.315,179.533 367.643,175.941C374.475,172.994 381.211,169.805 387.876,166.496C395.553,162.685 403.19,158.775 410.686,154.623C416.806,151.234 422.739,147.497 428.674,143.785C435.969,139.224 443.337,134.753 450.386,129.833C458.667,124.054 466.679,117.885 474.736,111.79C482.485,105.929 490.253,100.084 497.805,93.976C504.326,88.701 510.623,83.141 516.897,77.569C524.137,71.138 531.258,64.573 538.382,58.013C539.067,57.382 539.4,56.369 540.493,54.529C544.827,58.506 548.871,62.271 552.975,65.968C561.856,73.97 570.619,82.113 579.716,89.864C586.954,96.03 594.548,101.786 602.109,107.559C607.768,111.881 613.626,115.944 619.398,120.119C625.687,124.669 631.841,129.424 638.31,133.702C644.457,137.767 650.898,141.396 657.276,145.1C667.695,151.151 677.952,157.53 688.675,162.991C700.709,169.121 713.166,174.425 725.478,180.003C730.181,182.134 734.966,184.095 739.759,186.019C746.579,188.757 753.317,191.78 760.311,193.981C772.879,197.935 785.607,201.382 798.277,205.011C803.146,206.406 807.972,208.056 812.93,209.009C829.284,212.155 845.616,215.558 862.096,217.871C878.69,220.199 895.44,221.457 912.142,222.965C923.811,224.018 935.514,224.704 947.795,225.597C948.504,232.358 949.772,239.479 949.913,246.623C950.754,289.093 951.361,331.567 951.979,374.041C952.122,383.871 952.433,393.729 951.907,403.533C950.9,422.307 949.34,441.051 948.025,459.809C947.332,469.685 946.902,479.586 945.926,489.434C945.152,497.253 943.746,505.01 942.591,512.791C940.739,525.262 938.996,537.751 936.942,550.189C935.877,556.634 934.416,563.028 932.833,569.371C929.4,583.122 926.097,596.92 922.14,610.524C917.822,625.365 913.143,640.119 908.034,654.705C902.993,669.096 897.908,683.546 891.579,697.393C884.626,712.604 876.397,727.246 868.405,741.962C863.089,751.75 857.624,761.507 851.482,770.785C844.097,781.94 836.022,792.648 828.058,803.41C820.967,812.991 814.132,822.833 806.267,831.752C794.254,845.372 781.676,858.519 768.908,871.442C759.758,880.703 750.03,889.408 740.332,898.107C729.635,907.703 719.021,917.445 707.738,926.319C696.195,935.397 683.971,943.627 671.882,951.992C660.414,959.927 648.885,967.794 637.1,975.244C628.14,980.908 618.783,985.954 609.52,991.126C597.611,997.776 585.683,1004.39 573.645,1010.81C563.387,1016.27 552.981,1021.45 542.572,1026.62C541.793,1027.01 540.348,1026.53 539.412,1026.06C527.983,1020.28 516.525,1014.55 505.211,1008.56C495.193,1003.25 485.258,997.77 475.448,992.088C464.609,985.809 453.895,979.307 443.237,972.722C434.754,967.481 426.237,962.253 418.09,956.515C404.906,947.229 391.932,937.638 379.025,927.97C369.345,920.719 359.35,913.75 350.479,905.587C331.656,888.265 313.269,870.451 295.119,852.422C286.63,843.99 278.733,834.887 271.24,825.549C261.936,813.953 253.186,801.903 244.467,789.853C238.117,781.078 231.77,772.246 226.204,762.97C218.689,750.444 211.81,737.529 204.879,724.662C200.049,715.695 195.299,706.661 191.049,697.411C186.994,688.589 183.618,679.453 179.971,670.444C176.809,662.635 173.263,654.949 170.644,646.96C166.742,635.057 163.515,622.934 159.976,610.912C159.423,609.035 158.737,607.198 158.057,604.936M185,336.476C184.667,341.413 184.01,346.353 184.061,351.286C184.239,368.392 184.461,385.503 185.041,402.599C185.85,426.421 186.907,450.236 188.05,474.045C188.452,482.434 189.155,490.828 190.193,499.162C191.548,510.046 193.225,520.897 195.037,531.717C196.926,542.993 198.84,554.281 201.304,565.44C203.444,575.135 206.218,584.7 208.981,594.244C213.016,608.184 216.964,622.164 221.578,635.915C224.836,645.624 228.984,655.047 233.012,664.479C237.418,674.794 241.906,685.088 246.809,695.172C250.499,702.76 254.626,710.171 259.046,717.361C267.586,731.254 276.114,745.179 285.337,758.617C291.488,767.58 298.677,775.853 305.677,784.204C315.165,795.521 324.216,807.331 334.72,817.641C350.122,832.758 366.297,847.144 382.795,861.069C396.609,872.728 411.26,883.409 425.717,894.288C445.189,908.941 465.93,921.626 487.394,933.133C502.96,941.478 518.674,949.554 534.1,958.15C538.866,960.805 542.181,961.448 547.36,958.205C556.696,952.359 567.023,948.114 576.836,943.007C587.371,937.524 598.05,932.251 608.197,926.11C623.166,917.052 638.107,907.853 652.35,897.718C669.894,885.233 687.128,872.23 703.704,858.495C716.38,847.993 727.904,836.089 739.79,824.653C747.41,817.32 755.005,809.932 762.139,802.136C767.033,796.789 771.21,790.769 775.539,784.925C786.432,770.221 797.64,755.724 807.931,740.607C815.621,729.311 822.724,717.506 828.929,705.336C837.588,688.352 845.691,671.036 853.043,653.449C859.079,639.012 864.139,624.116 868.768,609.157C872.81,596.092 875.736,582.676 878.982,569.373C880.528,563.037 881.86,556.634 882.955,550.205C884.961,538.432 886.82,526.632 888.549,514.815C889.854,505.893 890.999,496.941 891.951,487.974C892.56,482.23 892.609,476.429 893.049,470.664C894.328,453.904 896.683,437.156 896.8,420.391C897.083,379.96 896.365,339.522 895.96,299.088C895.909,293.98 895.46,288.862 894.938,283.775C894.363,278.174 893.491,272.604 892.69,266.583C755.159,265.334 638.358,215.778 540.58,119.561C443.312,217.015 325.482,265.395 187.198,266.87C186.45,290.213 185.725,312.848 185,336.476Z" style="fill:rgb(21,118,186);fill-rule:nonzero;"/>
    <path d="M797.853,294.074C802.678,294.732 807.041,295.477 811.434,295.912C816.523,296.417 821.635,296.725 826.744,296.983C835.651,297.432 844.562,297.778 854.055,298.192C854.38,303.13 854.823,307.847 854.975,312.573C855.384,325.342 855.769,338.113 855.982,350.887C856.388,375.322 856.996,399.76 856.886,424.194C856.811,440.908 856.191,457.66 854.839,474.315C853.593,489.662 851.114,504.913 849.047,520.189C847.465,531.873 846.312,543.665 843.849,555.17C838.965,577.974 833.857,600.757 825.216,622.556C821.986,630.702 819.616,639.197 816.225,647.268C812.017,657.283 807.784,667.378 802.446,676.807C791.347,696.416 780.167,716.042 767.751,734.821C759.54,747.238 749.501,758.531 739.593,769.719C728.284,782.489 716.773,795.186 704.316,806.806C691.428,818.829 677.671,830.014 663.612,840.665C648.66,851.992 633.233,862.773 617.407,872.84C603.63,881.603 589.078,889.167 574.735,897.015C565.137,902.267 555.205,906.909 545.634,912.207C542.478,913.954 539.82,913.966 536.928,912.43C520.513,903.714 503.95,895.256 487.777,886.111C474.941,878.853 462.334,871.118 450.1,862.89C438.399,855.02 427.092,846.516 416.008,837.787C403.118,827.636 390.306,817.329 378.125,806.35C368.77,797.918 360.352,788.431 351.698,779.244C345.565,772.733 339.469,766.153 333.834,759.216C326.637,750.355 319.61,741.321 313.083,731.961C305.898,721.659 298.915,711.159 292.662,700.275C285.348,687.546 278.221,674.619 272.281,661.215C265,644.782 258.69,627.889 252.633,610.954C249.359,601.8 247.409,592.165 245.005,582.71C242.756,573.871 240.336,565.051 238.644,556.099C236.427,544.374 234.783,532.538 233.023,520.73C231.888,513.11 230.893,505.466 230.009,497.813C229.216,490.955 228.355,484.083 228.059,477.194C227.224,457.825 226.625,438.445 226.01,419.068C225.605,406.299 225.044,393.525 225.072,380.754C225.108,364.482 225.506,348.206 226.06,331.943C226.436,320.892 227.348,309.86 228.021,298.799C228.576,298.52 228.991,298.138 229.421,298.12C239.19,297.723 248.987,297.696 258.724,296.911C269.349,296.054 279.941,294.669 290.505,293.208C301.692,291.66 312.864,289.947 323.973,287.926C330.535,286.732 336.993,284.91 343.443,283.17C350.641,281.229 357.849,279.275 364.923,276.936C374.098,273.902 383.194,270.612 392.232,267.188C399.9,264.281 407.578,261.327 414.993,257.843C422.652,254.243 430.142,250.225 437.447,245.948C448.645,239.39 459.985,232.972 470.597,225.543C482.94,216.901 494.78,207.497 506.436,197.933C517.453,188.894 528.047,179.328 538.6,169.745C541.105,167.469 542.75,168.319 544.423,170.034C564.645,190.763 586.98,209.013 611.315,224.563C629.853,236.409 648.906,247.638 668.547,257.517C689.039,267.824 710.673,275.845 733.011,281.4C750.423,285.73 768.045,289.227 785.615,292.898C789.456,293.7 793.47,293.671 797.853,294.074M749.536,389.077C757.549,377.809 765.64,366.594 773.474,355.203C774.402,353.854 774.815,350.67 773.967,349.805C764.291,339.93 754.284,330.381 744.463,320.647C742.048,318.253 740.396,318.826 738.293,321.067C729.176,330.786 719.848,340.308 710.757,350.051C686.67,375.864 662.687,401.772 638.621,427.604C627.839,439.178 616.938,450.641 606.127,462.188C579.375,490.76 552.637,519.345 525.908,547.938C514.307,560.348 502.813,572.86 491.126,585.189C486.372,590.205 481.235,594.859 475.869,600.07C468.25,591.742 460.922,583.601 453.453,575.593C430.509,550.992 407.49,526.46 384.565,501.842C382.223,499.328 380.616,499.332 378.021,501.705C368.194,510.69 358.091,519.374 348.157,528.243C335.117,539.886 322.185,551.651 309.097,563.239C306.254,565.756 306.483,567.709 308.915,570.258C313.396,574.956 317.709,579.815 322.072,584.625C346.562,611.635 371.02,638.675 395.541,665.657C421.295,693.996 447.101,722.287 472.904,750.58C476.68,754.72 480.567,758.759 484.829,763.298C486.485,761.167 487.845,759.55 489.062,757.831C524.683,707.539 560.338,657.271 595.887,606.928C647.005,534.535 698.044,462.087 749.536,389.077Z" style="fill:rgb(21,118,186);fill-rule:nonzero;"/>
    <path d="M749.326,389.37C698.044,462.087 647.005,534.535 595.887,606.928C560.338,657.271 524.683,707.539 489.062,757.831C487.845,759.55 486.485,761.167 484.829,763.298C480.567,758.759 476.68,754.72 472.904,750.58C447.101,722.287 421.295,693.996 395.541,665.657C371.02,638.675 346.562,611.635 322.072,584.625C317.709,579.815 313.396,574.956 308.915,570.258C306.483,567.709 306.254,565.756 309.097,563.239C322.185,551.651 335.117,539.886 348.157,528.243C358.091,519.374 368.194,510.69 378.021,501.705C380.616,499.332 382.223,499.328 384.565,501.842C407.49,526.46 430.509,550.992 453.453,575.593C460.922,583.601 468.25,591.742 475.869,600.07C481.235,594.859 486.372,590.205 491.126,585.189C502.813,572.86 514.307,560.348 525.908,547.938C552.637,519.345 579.375,490.76 606.127,462.188C616.938,450.641 627.839,439.178 638.621,427.604C662.687,401.772 686.67,375.864 710.757,350.051C719.848,340.308 729.176,330.786 738.293,321.067C740.396,318.826 742.048,318.253 744.463,320.647C754.284,330.381 764.291,339.93 773.967,349.805C774.815,350.67 774.402,353.854 773.474,355.203C765.64,366.594 757.549,377.809 749.326,389.37Z" style="fill:rgb(220,166,48);fill-rule:nonzero;"/>
</svg>
